<svg width="10" height="10" viewBox="0 0 10 10" fill="none" xmlns="http://www.w3.org/2000/svg">
<g clip-path="url(#clip0_1_22)">
<path fill-rule="evenodd" clip-rule="evenodd" d="M5.44163 6.69167C5.32444 6.80871 5.16558 6.87445 4.99996 6.87445C4.83433 6.87445 4.67548 6.80871 4.55829 6.69167L2.20079 4.335C2.0836 4.21775 2.01778 4.05875 2.01782 3.89298C2.01786 3.72721 2.08375 3.56824 2.201 3.45104C2.31825 3.33385 2.47725 3.26803 2.64302 3.26807C2.8088 3.26811 2.96777 3.334 3.08496 3.45125L4.99996 5.36625L6.91496 3.45125C7.03278 3.33735 7.19063 3.27427 7.3545 3.27562C7.51838 3.27697 7.67517 3.34262 7.7911 3.45845C7.90704 3.57428 7.97284 3.731 7.97434 3.89488C7.97584 4.05875 7.91292 4.21666 7.79913 4.33459L5.44204 6.69209L5.44163 6.69167Z" fill="white"/>
</g>
<defs>
<clipPath id="clip0_1_22">
<rect width="10" height="10" fill="white"/>
</clipPath>
</defs>
</svg>
