<svg width="78" height="62" viewBox="0 0 78 62" fill="none" xmlns="http://www.w3.org/2000/svg">
<g clip-path="url(#clip0_1_4)">
<path d="M78 0C77.0442 3.88907 76.0885 7.77814 75.1332 11.6672L64.3581 62C57.7566 61.9903 51.1551 61.9806 44.5536 61.9709C44.1966 47.1564 37.0573 37.2183 31.815 37.2183C26.5728 37.2183 19.4335 47.1569 19.0764 61.9709H0V12.4653H12.7076V37.2179C14.8309 28.9672 16.9537 20.716 19.0769 12.4653H50.9229V55.7826C53.0462 37.2179 55.1689 18.6536 57.2922 0.0887849C64.1948 0.0591899 71.0974 0.029595 78 0Z" fill="#5600F1"/>
<path d="M5.5144 10.7153C8.55991 10.7153 11.0288 8.31661 11.0288 5.35766C11.0288 2.39871 8.55991 0 5.5144 0C2.46888 0 0 2.39871 0 5.35766C0 8.31661 2.46888 10.7153 5.5144 10.7153Z" fill="#DBEA00"/>
</g>
<defs>
<clipPath id="clip0_1_4">
<rect width="78" height="62" fill="white"/>
</clipPath>
</defs>
</svg>
